<svg id="grapper" xmlns="http://www.w3.org/2000/svg" version="1.1" viewBox="0 0 250 250">
    <path d="M129.55,140.29H57.3c-.93,0-1.79-.5-2.26-1.3l-36.13-62.58c-.47-.81-.47-1.8,0-2.61L55.04,11.23c.47-.81,1.33-1.3,2.26-1.3h72.26c.93,0,1.79.5,2.26,1.3l26.64,46.14c.72,1.25.29,2.84-.95,3.56-1.25.72-2.84.29-3.56-.96l-25.89-44.84H58.8l-34.62,59.97,34.62,59.97h69.24l25.89-44.84c.72-1.25,2.32-1.68,3.56-.96s1.68,2.32.95,3.56l-26.64,46.14c-.47.81-1.33,1.3-2.26,1.3Z" fill="#fe5140"/>
    <path d="M207.74,202.87h-55.11c-1.44,0-2.61-1.17-2.61-2.61s1.17-2.61,2.61-2.61h53.6l34.62-59.97-34.62-59.97h-69.24l-18.64,32.28c-.72,1.25-2.31,1.68-3.56.96-1.25-.72-1.68-2.32-.95-3.56l19.39-33.58c.47-.81,1.33-1.3,2.26-1.3h72.26c.93,0,1.79.5,2.26,1.3l36.13,62.58c.47.81.47,1.8,0,2.61l-36.13,62.58c-.47.81-1.33,1.3-2.26,1.3Z" fill="#20ae66"/>
    <path d="M114.51,240.08H42.26c-.93,0-1.79-.5-2.26-1.3L3.87,176.2c-.47-.81-.47-1.8,0-2.61l26.74-46.31c.72-1.25,2.32-1.68,3.56-.96,1.25.72,1.68,2.32.95,3.56l-25.98,45.01,34.62,59.97h69.24l34.62-59.97-12.75-22.09c-.72-1.25-.29-2.84.95-3.56,1.25-.72,2.84-.29,3.56.96l13.51,23.39c.47.81.47,1.8,0,2.61l-36.13,62.58c-.47.81-1.33,1.3-2.26,1.3Z" fill="#4089c4"/>
</svg>