<svg id="grapper" xmlns="http://www.w3.org/2000/svg" viewBox="0 0 732 270">
  <g>
    <path fill="#fe5140" d="M147.51,152.29h-72.26c-.93,0-1.79-.5-2.26-1.3l-36.13-62.58c-.47-.81-.47-1.8,0-2.61l36.13-62.58c.47-.81,1.33-1.3,2.26-1.3h72.26c.93,0,1.79.5,2.26,1.3l26.64,46.14c.72,1.25.29,2.84-.95,3.56-1.25.72-2.84.29-3.56-.96l-25.89-44.84h-69.24l-34.62,59.97,34.62,59.97h69.24l25.89-44.84c.72-1.25,2.32-1.68,3.56-.96s1.68,2.32.95,3.56l-26.64,46.14c-.47.81-1.33,1.3-2.26,1.3Z"/>
    <path fill="#20ae66" d="M225.7,214.87h-55.11c-1.44,0-2.61-1.17-2.61-2.61s1.17-2.61,2.61-2.61h53.6l34.62-59.97-34.62-59.97h-69.24l-18.64,32.28c-.72,1.25-2.31,1.68-3.56.96-1.25-.72-1.68-2.32-.95-3.56l19.39-33.58c.47-.81,1.33-1.3,2.26-1.3h72.26c.93,0,1.79.5,2.26,1.3l36.13,62.58c.47.81.47,1.8,0,2.61l-36.13,62.58c-.47.81-1.33,1.3-2.26,1.3Z"/>
    <path fill="#4089c4" d="M132.47,252.08H60.22c-.93,0-1.79-.5-2.26-1.3l-36.13-62.58c-.47-.81-.47-1.8,0-2.61l26.74-46.31c.72-1.25,2.32-1.68,3.56-.96,1.25.72,1.68,2.32.95,3.56l-25.98,45.01,34.62,59.97h69.24l34.62-59.97-12.75-22.09c-.72-1.25-.29-2.84.95-3.56,1.25-.72,2.84-.29,3.56.96l13.51,23.39c.47.81.47,1.8,0,2.61l-36.13,62.58c-.47.81-1.33,1.3-2.26,1.3Z"/>
  </g>
  <g fill="#383838">
    <path d="M356.8,109.6h-13.7c-3.7-7-10.3-10.5-18.6-10.5-13.8,0-23.8,9.8-23.8,25.1s10,25.2,23.8,25.2c12.6,0,20.5-7.6,22.2-19.3h-26.1v-9.1h38.3v8.9c-2.1,16.1-15.7,29.8-34.4,29.8s-35.5-14.6-35.5-35.5,15.9-35.5,35.5-35.5c14.5,0,27,7.3,32.3,20.9Z"/>
    <path d="M381.5,159.1h-11.4v-55.1h11.4v8c3.2-5.5,8.7-8.9,16.5-8.9v11.8h-2.9c-8.4,0-13.6,3.5-13.6,15.2v29Z"/>
    <path d="M430.7,103.1c9.3,0,15.7,4.4,19.1,8.9v-8h11.5v55.1h-11.5v-8.2c-3.5,4.7-10.1,9.1-19.3,9.1-14.3,0-25.8-11.7-25.8-28.7s11.5-28.2,26-28.2ZM433.1,113c-8.5,0-16.7,6.4-16.7,18.3s8.2,18.8,16.7,18.8,16.7-6.7,16.7-18.6-8.1-18.5-16.7-18.5Z"/>
    <path d="M506.9,103.1c14.5,0,25.9,11.2,25.9,28.2s-11.4,28.7-25.9,28.7c-9.1,0-15.6-4.6-19.2-8.9v34.2h-11.4v-81.31h11.4v8.1c3.5-4.6,10.2-9,19.2-9ZM504.4,113c-8.5,0-16.7,6.7-16.7,18.5s8.2,18.6,16.7,18.6,16.8-6.9,16.8-18.8-8.2-18.3-16.8-18.3Z"/>
    <path d="M574.7,103.1c14.5,0,25.9,11.2,25.9,28.2s-11.4,28.7-25.9,28.7c-9.1,0-15.6-4.6-19.2-8.9v34.2h-11.4v-81.31h11.4v8.1c3.5-4.6,10.2-9,19.2-9ZM572.2,113c-8.5,0-16.7,6.7-16.7,18.5s8.2,18.6,16.7,18.6,16.8-6.9,16.8-18.8-8.2-18.3-16.8-18.3Z"/>
    <path d="M635.6,160c-15.8,0-27.5-11.2-27.5-28.5s11.2-28.4,27.5-28.4,26.8,10.9,26.8,27.1c0,1.9-.1,3.7-.4,5.6h-42.1c.8,9.1,7.3,14.6,15.7,14.6,7,0,10.9-3.4,13-7.7h12.3c-3.1,9.6-11.8,17.3-25.3,17.3ZM620,126.6h30.5c-.2-8.5-6.9-13.9-15.4-13.9-7.7,0-13.9,5.2-15.1,13.9Z"/>
    <path d="M685,159.1h-11.4v-55.1h11.4v8c3.2-5.5,8.7-8.9,16.5-8.9v11.8h-2.9c-8.4,0-13.6,3.5-13.6,15.2v29Z"/>
  </g>
  <g fill="#383838">
    <path d="M584.95,200.32c.57.69.86,1.48.86,2.39,0,.74-.19,1.41-.56,2-.37.6-.91,1.06-1.63,1.41-.71.34-1.57.51-2.56.51h-5.08v-14.68h4.94c1.48,0,2.61.34,3.39,1.03.78.69,1.17,1.58,1.17,2.67,0,.91-.25,1.65-.74,2.22-.49.57-1.12.96-1.89,1.19.83.15,1.53.57,2.1,1.26ZM577.45,198.45h3.42c.99,0,1.76-.23,2.3-.7.54-.47.81-1.12.81-1.94s-.27-1.45-.81-1.91-1.33-.69-2.36-.69h-3.36v5.25ZM583.45,204.64c.59-.5.89-1.2.89-2.08s-.31-1.58-.93-2.11-1.46-.79-2.51-.79h-3.44v5.73h3.51c1.06,0,1.89-.25,2.49-.76Z"/>
    <path d="M597.97,195.17l-6.8,16.86h-1.53l2.23-5.46-4.7-11.4h1.62l3.91,9.79,3.78-9.79h1.51Z"/>
    <path d="M617.27,196.24c-.42-.97-1.06-1.73-1.92-2.28-.86-.55-1.87-.83-3.03-.83-1.09,0-2.07.25-2.94.76s-1.55,1.22-2.06,2.15c-.5.93-.76,2.01-.76,3.25s.25,2.32.76,3.25c.5.94,1.19,1.66,2.06,2.16s1.85.76,2.94.76c1.02,0,1.94-.22,2.76-.66.82-.44,1.48-1.07,1.97-1.89.5-.82.78-1.77.85-2.87h-6.17v-1.2h7.73v1.07c-.07,1.29-.42,2.45-1.05,3.5s-1.47,1.87-2.53,2.47c-1.06.6-2.24.9-3.56.9s-2.59-.32-3.7-.96c-1.11-.64-1.98-1.53-2.61-2.67-.64-1.14-.96-2.43-.96-3.87s.32-2.73.96-3.88c.64-1.14,1.51-2.03,2.61-2.67,1.11-.64,2.34-.96,3.7-.96,1.57,0,2.94.39,4.12,1.18,1.18.78,2.03,1.88,2.56,3.28h-1.72Z"/>
    <path d="M625.09,195.55c.66-.39,1.48-.59,2.45-.59v1.53h-.4c-1.06,0-1.92.29-2.56.86-.64.57-.97,1.53-.97,2.88v6.41h-1.47v-11.47h1.47v2.04c.32-.71.82-1.27,1.48-1.66Z"/>
    <path d="M629.77,197.79c.47-.89,1.12-1.58,1.95-2.06.83-.48,1.78-.72,2.83-.72s2.03.25,2.82.76,1.36,1.15,1.71,1.93v-2.52h1.47v11.47h-1.47v-2.54c-.36.78-.94,1.43-1.73,1.94-.79.51-1.73.77-2.83.77s-1.97-.25-2.8-.74c-.83-.49-1.48-1.18-1.95-2.08-.47-.9-.7-1.93-.7-3.11s.23-2.21.7-3.1ZM638.52,198.47c-.38-.7-.89-1.24-1.54-1.62-.65-.38-1.37-.57-2.15-.57s-1.54.18-2.18.55c-.64.36-1.15.89-1.52,1.58-.37.69-.56,1.52-.56,2.47s.19,1.76.56,2.47.88,1.25,1.52,1.62c.64.37,1.37.56,2.18.56s1.5-.19,2.15-.57c.65-.38,1.17-.92,1.54-1.62s.57-1.51.57-2.44-.19-1.74-.57-2.44Z"/>
    <path d="M647.1,195.77c.79-.51,1.73-.77,2.82-.77s1.97.24,2.8.72c.83.48,1.48,1.17,1.95,2.06.47.89.7,1.92.7,3.1s-.24,2.21-.7,3.11c-.47.9-1.12,1.59-1.95,2.08-.83.49-1.77.74-2.8.74s-2.02-.25-2.81-.77c-.8-.51-1.38-1.15-1.74-1.92v7.94h-1.45v-16.88h1.45v2.52c.36-.77.94-1.41,1.73-1.92ZM653.34,198.42c-.37-.69-.88-1.22-1.52-1.58-.64-.36-1.37-.55-2.18-.55s-1.5.19-2.15.57c-.65.38-1.17.92-1.54,1.62s-.57,1.51-.57,2.44.19,1.74.57,2.44.89,1.24,1.54,1.62c.65.38,1.37.57,2.15.57s1.54-.19,2.18-.56c.64-.37,1.15-.91,1.52-1.62s.56-1.53.56-2.47-.19-1.77-.56-2.47Z"/>
    <path d="M665.89,195.51c.69.36,1.24.92,1.64,1.67.4.75.6,1.66.6,2.74v6.72h-1.45v-6.55c0-1.25-.31-2.2-.93-2.86-.62-.66-1.47-.99-2.55-.99s-1.99.35-2.65,1.05-.99,1.73-.99,3.09v6.26h-1.47v-15.54h1.47v6.03c.36-.69.9-1.22,1.61-1.6.71-.38,1.5-.57,2.38-.57s1.65.18,2.34.55Z"/>
    <path d="M681.72,201.47h-9.51c.04.87.25,1.61.63,2.23.38.62.88,1.08,1.49,1.4.62.32,1.29.47,2.02.47.95,0,1.75-.23,2.4-.69.65-.46,1.08-1.08,1.29-1.87h1.55c-.28,1.12-.88,2.03-1.79,2.74-.92.71-2.07,1.06-3.46,1.06-1.08,0-2.04-.24-2.9-.72-.85-.48-1.52-1.17-2.01-2.06s-.72-1.93-.72-3.12.24-2.23.71-3.13c.48-.9,1.14-1.58,2-2.06s1.83-.71,2.92-.71,2.05.24,2.87.71c.82.48,1.45,1.12,1.89,1.92.44.8.66,1.7.66,2.68,0,.5-.01.89-.04,1.16ZM679.75,198.09c-.36-.6-.84-1.06-1.46-1.37-.62-.31-1.29-.46-2.02-.46-1.09,0-2.02.35-2.79,1.05-.77.7-1.2,1.69-1.28,2.96h8.06c.01-.85-.16-1.58-.51-2.18Z"/>
    <path d="M687.4,195.55c.66-.39,1.48-.59,2.45-.59v1.53h-.4c-1.06,0-1.92.29-2.56.86-.64.57-.97,1.53-.97,2.88v6.41h-1.47v-11.47h1.47v2.04c.32-.71.82-1.27,1.48-1.66Z"/>
    <path d="M701.5,195.17l-6.8,16.86h-1.53l2.23-5.46-4.7-11.4h1.62l3.91,9.79,3.78-9.79h1.51Z"/>
  </g>
</svg>